<svg width="52" height="52" viewBox="0 0 52 52" fill="none" xmlns="http://www.w3.org/2000/svg">
<path d="M46.15 21.84C45.5412 21.1091 44.7794 20.5207 43.9183 20.1164C43.0573 19.712 42.118 19.5016 41.1667 19.5H31.2867L32.5 16.4017C33.0047 15.0451 33.1728 13.5863 32.9898 12.1505C32.8069 10.7147 32.2784 9.34469 31.4496 8.15801C30.6209 6.97133 29.5166 6.00341 28.2316 5.33726C26.9466 4.67111 25.5191 4.32662 24.0717 4.33335C23.6549 4.33422 23.2472 4.45528 22.8975 4.68201C22.5478 4.90875 22.2709 5.23154 22.1 5.61168L15.925 19.5H10.8334C9.10947 19.5 7.45617 20.1848 6.23718 21.4038C5.01819 22.6228 4.33337 24.2761 4.33337 26V41.1667C4.33337 42.8906 5.01819 44.5439 6.23718 45.7629C7.45617 46.9819 9.10947 47.6667 10.8334 47.6667H38.415C39.9356 47.6662 41.4079 47.1326 42.5757 46.1587C43.7436 45.1849 44.533 43.8324 44.8067 42.3367L47.5584 27.17C47.7286 26.2327 47.6906 25.2694 47.4473 24.3483C47.2039 23.4273 46.761 22.5709 46.15 21.84ZM15.1667 43.3333H10.8334C10.2587 43.3333 9.70764 43.1051 9.30131 42.6987C8.89498 42.2924 8.66671 41.7413 8.66671 41.1667V26C8.66671 25.4254 8.89498 24.8743 9.30131 24.468C9.70764 24.0616 10.2587 23.8333 10.8334 23.8333H15.1667V43.3333ZM43.3334 26.39L40.5817 41.5567C40.4894 42.0614 40.221 42.517 39.8242 42.8424C39.4274 43.1677 38.9281 43.3417 38.415 43.3333H19.5V22.1217L25.3934 8.86168C26 9.03854 26.5634 9.33923 27.048 9.74478C27.5325 10.1503 27.9278 10.6519 28.2087 11.2179C28.4897 11.7839 28.6503 12.402 28.6803 13.0332C28.7104 13.6643 28.6093 14.2949 28.3834 14.885L27.235 17.9833C26.9904 18.6382 26.9077 19.3426 26.9943 20.0363C27.0808 20.7301 27.3339 21.3926 27.7319 21.9673C28.13 22.542 28.6612 23.0119 29.2802 23.3368C29.8992 23.6618 30.5876 23.8321 31.2867 23.8333H41.1667C41.485 23.8328 41.7995 23.9025 42.0879 24.0373C42.3762 24.1721 42.6313 24.3688 42.835 24.6133C43.0438 24.8545 43.1967 25.1389 43.2828 25.446C43.3689 25.7531 43.3862 26.0754 43.3334 26.39Z" fill="#1F77D6"/>
</svg>
