<svg width="52" height="52" viewBox="0 0 52 52" fill="none" xmlns="http://www.w3.org/2000/svg">
<path d="M34.6667 30.3334H17.3333C16.7587 30.3334 16.2076 30.5616 15.8013 30.968C15.3949 31.3743 15.1667 31.9254 15.1667 32.5C15.1667 33.0747 15.3949 33.6258 15.8013 34.0321C16.2076 34.4384 16.7587 34.6667 17.3333 34.6667H34.6667C35.2413 34.6667 35.7924 34.4384 36.1987 34.0321C36.6051 33.6258 36.8333 33.0747 36.8333 32.5C36.8333 31.9254 36.6051 31.3743 36.1987 30.968C35.7924 30.5616 35.2413 30.3334 34.6667 30.3334ZM34.6667 21.6667H21.6667C21.092 21.6667 20.5409 21.895 20.1346 22.3013C19.7283 22.7076 19.5 23.2587 19.5 23.8334C19.5 24.408 19.7283 24.9591 20.1346 25.3654C20.5409 25.7718 21.092 26 21.6667 26H34.6667C35.2413 26 35.7924 25.7718 36.1987 25.3654C36.6051 24.9591 36.8333 24.408 36.8333 23.8334C36.8333 23.2587 36.6051 22.7076 36.1987 22.3013C35.7924 21.895 35.2413 21.6667 34.6667 21.6667ZM43.3333 8.66671H36.8333V6.50004C36.8333 5.9254 36.6051 5.3743 36.1987 4.96798C35.7924 4.56165 35.2413 4.33337 34.6667 4.33337C34.092 4.33337 33.5409 4.56165 33.1346 4.96798C32.7283 5.3743 32.5 5.9254 32.5 6.50004V8.66671H28.1667V6.50004C28.1667 5.9254 27.9384 5.3743 27.5321 4.96798C27.1257 4.56165 26.5746 4.33337 26 4.33337C25.4254 4.33337 24.8743 4.56165 24.4679 4.96798C24.0616 5.3743 23.8333 5.9254 23.8333 6.50004V8.66671H19.5V6.50004C19.5 5.9254 19.2717 5.3743 18.8654 4.96798C18.4591 4.56165 17.908 4.33337 17.3333 4.33337C16.7587 4.33337 16.2076 4.56165 15.8013 4.96798C15.3949 5.3743 15.1667 5.9254 15.1667 6.50004V8.66671H8.66667C8.09203 8.66671 7.54093 8.89498 7.1346 9.30131C6.72827 9.70764 6.5 10.2587 6.5 10.8334V41.1667C6.5 42.8906 7.18482 44.5439 8.40381 45.7629C9.62279 46.9819 11.2761 47.6667 13 47.6667H39C40.7239 47.6667 42.3772 46.9819 43.5962 45.7629C44.8152 44.5439 45.5 42.8906 45.5 41.1667V10.8334C45.5 10.2587 45.2717 9.70764 44.8654 9.30131C44.4591 8.89498 43.908 8.66671 43.3333 8.66671V8.66671ZM41.1667 41.1667C41.1667 41.7413 40.9384 42.2924 40.5321 42.6988C40.1257 43.1051 39.5746 43.3334 39 43.3334H13C12.4254 43.3334 11.8743 43.1051 11.4679 42.6988C11.0616 42.2924 10.8333 41.7413 10.8333 41.1667V13H15.1667V15.1667C15.1667 15.7413 15.3949 16.2924 15.8013 16.6988C16.2076 17.1051 16.7587 17.3334 17.3333 17.3334C17.908 17.3334 18.4591 17.1051 18.8654 16.6988C19.2717 16.2924 19.5 15.7413 19.5 15.1667V13H23.8333V15.1667C23.8333 15.7413 24.0616 16.2924 24.4679 16.6988C24.8743 17.1051 25.4254 17.3334 26 17.3334C26.5746 17.3334 27.1257 17.1051 27.5321 16.6988C27.9384 16.2924 28.1667 15.7413 28.1667 15.1667V13H32.5V15.1667C32.5 15.7413 32.7283 16.2924 33.1346 16.6988C33.5409 17.1051 34.092 17.3334 34.6667 17.3334C35.2413 17.3334 35.7924 17.1051 36.1987 16.6988C36.6051 16.2924 36.8333 15.7413 36.8333 15.1667V13H41.1667V41.1667Z" fill="#1F77D6"/>
</svg>
