<svg width="52" height="52" viewBox="0 0 52 52" fill="none" xmlns="http://www.w3.org/2000/svg">
<path d="M35.75 10.8334C33.8423 10.8319 31.9701 11.3486 30.3333 12.3284C29.1465 9.60442 27.0625 7.36919 24.4281 5.9949C21.7938 4.62062 18.7682 4.19021 15.8551 4.77536C12.942 5.3605 10.3173 6.92589 8.41802 9.21085C6.51871 11.4958 5.45945 14.3624 5.41663 17.3334V26.0001C5.41974 29.07 6.50916 32.0397 8.49196 34.3834C10.4748 36.727 13.223 38.2934 16.25 38.8051V45.5001C16.25 46.0747 16.4782 46.6258 16.8846 47.0321C17.2909 47.4384 17.842 47.6667 18.4166 47.6667C18.9913 47.6667 19.5424 47.4384 19.9487 47.0321C20.355 46.6258 20.5833 46.0747 20.5833 45.5001V38.8051C22.7905 38.422 24.8636 37.4824 26.6066 36.0751C27.3802 37.3166 28.3971 38.3885 29.5962 39.2264C30.7952 40.0642 32.1515 40.6506 33.5833 40.9501V45.5001C33.5833 46.0747 33.8116 46.6258 34.2179 47.0321C34.6242 47.4384 35.1753 47.6667 35.75 47.6667C36.3246 47.6667 36.8757 47.4384 37.282 47.0321C37.6884 46.6258 37.9166 46.0747 37.9166 45.5001V40.9501C40.3636 40.4506 42.5628 39.121 44.1421 37.1863C45.7214 35.2517 46.5838 32.8308 46.5833 30.3334V21.6667C46.5833 18.7935 45.4419 16.038 43.4103 14.0064C41.3786 11.9748 38.6231 10.8334 35.75 10.8334V10.8334ZM24.9166 21.6667V30.3334C24.9374 30.7471 24.9808 31.1594 25.0466 31.5684C23.8879 32.9485 22.3277 33.933 20.5833 34.3851V28.1667C20.5833 27.5921 20.355 27.041 19.9487 26.6347C19.5424 26.2283 18.9913 26.0001 18.4166 26.0001C17.842 26.0001 17.2909 26.2283 16.8846 26.6347C16.4782 27.041 16.25 27.5921 16.25 28.1667V34.3634C14.3943 33.8843 12.7497 32.8035 11.5736 31.2903C10.3975 29.777 9.75618 27.9166 9.74996 26.0001V17.3334C9.74431 15.6164 10.2488 13.9365 11.1993 12.5067C12.1499 11.0769 13.5037 9.96164 15.0891 9.30243C16.6744 8.64322 18.4199 8.46975 20.104 8.80404C21.7881 9.13833 23.3349 9.9653 24.5483 11.1801C25.7212 12.3688 26.5197 13.8754 26.845 15.5134C25.5925 17.3212 24.9199 19.4674 24.9166 21.6667V21.6667ZM42.25 30.3334C42.2462 31.6744 41.8277 32.9815 41.0519 34.0754C40.2761 35.1692 39.181 35.9964 37.9166 36.4434V28.1667C37.9166 27.5921 37.6884 27.041 37.282 26.6347C36.8757 26.2283 36.3246 26.0001 35.75 26.0001C35.1753 26.0001 34.6242 26.2283 34.2179 26.6347C33.8116 27.041 33.5833 27.5921 33.5833 28.1667V36.4434C32.3189 35.9964 31.2238 35.1692 30.448 34.0754C29.6722 32.9815 29.2537 31.6744 29.25 30.3334V21.6667C29.25 19.9428 29.9348 18.2895 31.1538 17.0705C32.3727 15.8515 34.0261 15.1667 35.75 15.1667C37.4739 15.1667 39.1272 15.8515 40.3462 17.0705C41.5651 18.2895 42.25 19.9428 42.25 21.6667V30.3334Z" fill="#1F77D6"/>
</svg>
