<svg width="158" height="37" viewBox="0 0 158 37" fill="none" xmlns="http://www.w3.org/2000/svg">
<path d="M26.5104 20.6173C25.867 20.5518 25.3154 21.0235 25.2562 21.6569C24.6839 27.7758 22.3252 32.2497 21.471 33.6962H19.5309C19.7465 33.2813 19.9832 32.7999 20.2293 32.2554C20.4907 31.6763 20.233 30.9937 19.6534 30.7316C19.0743 30.4708 18.3911 30.7279 18.1289 31.3076C17.6353 32.4004 17.1833 33.2149 16.8977 33.6962H10.3833C11.2008 32.1232 12.3229 29.5844 13.0945 26.32C13.2406 25.7004 12.8575 25.0795 12.2384 24.9335C11.6182 24.7856 10.9985 25.1706 10.8526 25.7896C9.91439 29.7574 8.39683 32.5976 7.74693 33.6963H5.81067C7.10083 31.222 9.13947 26.3642 9.36693 20.067H26.5242C26.5283 20.0671 26.5324 20.0677 26.5365 20.0677C27.014 20.0677 27.4233 19.7773 27.598 19.3635C27.6565 19.2255 27.6889 19.0738 27.689 18.9146C27.689 18.9104 27.6885 18.9064 27.6884 18.9023V15.1687C27.6884 13.1576 26.0523 11.5208 24.0405 11.5208H16.1278V3.64852C16.1278 2.90721 16.6919 2.30442 17.3857 2.30442C18.0796 2.30442 18.6437 2.90721 18.6437 3.64852V9.53712C18.6437 10.173 19.1597 10.689 19.7962 10.689C20.4326 10.689 20.948 10.1736 20.948 9.53712V3.64788C20.9481 1.63673 19.3507 0 17.3864 0C15.4227 0 13.8246 1.63673 13.8246 3.64852V11.5208H10.7321C8.72097 11.5208 7.08424 13.1569 7.08424 15.1687V18.9151C7.08424 27.8863 2.90163 34.1368 2.86042 34.1973C2.61953 34.5499 2.59274 35.0073 2.79243 35.3848C2.99212 35.7629 3.38397 35.9994 3.8114 35.9994H8.36892C8.37461 35.9994 8.38024 36 8.38593 36C8.39289 36 8.39985 35.9995 8.40682 35.9994H17.5185C17.5242 35.9994 17.5299 36 17.5356 36C17.5425 36 17.5495 35.9995 17.5564 35.9994H22.1119C22.492 35.9994 22.8476 35.8128 23.0623 35.4995C23.2139 35.2768 26.7931 29.9697 27.55 21.8715C27.6092 21.2382 27.1438 20.6766 26.5104 20.6173ZM10.7328 13.8246H24.0407C24.7813 13.8246 25.3841 14.4274 25.3841 15.1687V17.7626H9.38873V15.1687C9.38866 14.4274 9.99145 13.8246 10.7328 13.8246Z" fill="white"/>
<path d="M20.6823 21.6557C20.462 24.015 19.9566 26.3631 19.1823 28.635C18.9776 29.2378 19.299 29.8924 19.9011 30.0977C20.0247 30.1395 20.1501 30.1601 20.273 30.1601C20.7523 30.1601 21.1997 29.8581 21.3632 29.3782C22.1962 26.9346 22.7385 24.4087 22.9762 21.8703C23.0355 21.2369 22.57 20.6753 21.9366 20.616C21.3 20.55 20.7416 21.0223 20.6823 21.6557Z" fill="white"/>
<path d="M14.0449 32.9974C14.2009 33.0692 14.3644 33.1035 14.5253 33.1035C14.9615 33.1035 15.3789 32.8539 15.5724 32.4321C16.627 30.1383 17.9729 26.4443 18.4003 21.871C18.4596 21.2376 17.9941 20.676 17.3607 20.6168C16.7255 20.5506 16.1658 21.0229 16.1065 21.6563C15.709 25.907 14.4585 29.3389 13.4795 31.4705C13.2137 32.0482 13.467 32.7322 14.0449 32.9974Z" fill="white"/>
<path d="M13.8246 21.8709C13.8839 21.2369 13.4184 20.6753 12.785 20.616C12.1504 20.5505 11.5901 21.0216 11.5308 21.655C11.4815 22.1804 11.4203 22.6933 11.3473 23.1931C11.2556 23.8222 11.6918 24.4074 12.3214 24.4986C12.3782 24.5073 12.4337 24.511 12.4892 24.511C13.0514 24.511 13.5438 24.0992 13.6267 23.5245C13.706 22.9823 13.7728 22.4257 13.8246 21.8709Z" fill="white"/>
<path d="M26.2957 32.6473C26.0093 32.9343 25.8402 33.3393 25.8402 33.7518C25.8402 34.1642 26.0087 34.5636 26.2957 34.8569C26.589 35.1432 26.9883 35.3118 27.4002 35.3118C27.8126 35.3118 28.2114 35.1433 28.5046 34.8569C28.7973 34.5636 28.9596 34.1642 28.9596 33.7518C28.9596 33.3393 28.7979 32.9406 28.5046 32.6473C27.9237 32.067 26.8761 32.067 26.2957 32.6473Z" fill="white"/>
<path d="M30.1401 28.5352C29.5592 27.9549 28.5171 27.9549 27.9312 28.5352C27.6448 28.8222 27.4757 29.2279 27.4757 29.6334C27.4757 30.0459 27.6442 30.4515 27.9312 30.7379C28.2245 31.0312 28.6301 31.1996 29.0357 31.1996C29.4475 31.1996 29.8525 31.0312 30.1401 30.7379C30.4328 30.4515 30.5951 30.0452 30.5951 29.6334C30.5951 29.2272 30.4334 28.8222 30.1401 28.5352Z" fill="white"/>
<path d="M32.8851 31.9796C32.3048 31.4055 31.2565 31.3999 30.6762 31.9859C30.3835 32.2735 30.2213 32.6791 30.2213 33.0841C30.2213 33.4965 30.3829 33.9022 30.6762 34.1892C30.9694 34.4818 31.3695 34.6441 31.7813 34.6441C32.1925 34.6441 32.5925 34.4819 32.8851 34.1892C33.1715 33.9022 33.3406 33.496 33.3406 33.0841C33.3406 32.6785 33.1721 32.2735 32.8851 31.9796Z" fill="white"/>
<path d="M55.804 33.432C53.908 33.432 52.132 33.096 50.476 32.424C48.82 31.728 47.368 30.756 46.12 29.508C44.896 28.26 43.936 26.796 43.24 25.116C42.544 23.412 42.196 21.564 42.196 19.572C42.196 17.556 42.544 15.708 43.24 14.028C43.936 12.348 44.896 10.884 46.12 9.636C47.368 8.388 48.808 7.428 50.44 6.756C52.096 6.084 53.884 5.748 55.804 5.748C57.724 5.748 59.5 6.096 61.132 6.792C62.788 7.464 64.228 8.424 65.452 9.672C66.7 10.896 67.672 12.348 68.368 14.028C69.088 15.708 69.448 17.556 69.448 19.572C69.448 21.564 69.088 23.412 68.368 25.116C67.672 26.796 66.7 28.26 65.452 29.508C64.228 30.756 62.788 31.728 61.132 32.424C59.5 33.096 57.724 33.432 55.804 33.432ZM55.804 30.156C57.292 30.156 58.648 29.892 59.872 29.364C61.096 28.812 62.152 28.056 63.04 27.096C63.952 26.112 64.648 24.984 65.128 23.712C65.632 22.416 65.884 21.036 65.884 19.572C65.884 18.108 65.632 16.74 65.128 15.468C64.648 14.196 63.952 13.08 63.04 12.12C62.152 11.136 61.096 10.38 59.872 9.852C58.648 9.3 57.292 9.024 55.804 9.024C54.34 9.024 52.996 9.3 51.772 9.852C50.548 10.38 49.48 11.136 48.568 12.12C47.68 13.08 46.984 14.196 46.48 15.468C45.976 16.74 45.724 18.108 45.724 19.572C45.724 21.036 45.976 22.416 46.48 23.712C46.984 24.984 47.68 26.112 48.568 27.096C49.48 28.056 50.548 28.812 51.772 29.364C52.996 29.892 54.34 30.156 55.804 30.156ZM63.04 36.24L53.896 22.272H57.784L66.964 36.24H63.04ZM73.1175 33V5.748H76.4655V33H73.1175ZM80.5804 33V13.596H83.9284V33H80.5804ZM80.5804 10.5V6.18H83.9284V10.5H80.5804ZM88.0434 33V13.596H91.3194V17.376L90.7794 17.052C91.2594 15.828 92.0274 14.88 93.0834 14.208C94.1634 13.512 95.4234 13.164 96.8634 13.164C98.2554 13.164 99.4914 13.476 100.571 14.1C101.675 14.724 102.539 15.588 103.163 16.692C103.811 17.796 104.135 19.044 104.135 20.436V33H100.751V21.516C100.751 20.436 100.559 19.524 100.175 18.78C99.7914 18.036 99.2394 17.46 98.5194 17.052C97.8234 16.62 97.0194 16.404 96.1074 16.404C95.1954 16.404 94.3794 16.62 93.6594 17.052C92.9634 17.46 92.4114 18.048 92.0034 18.816C91.5954 19.56 91.3914 20.46 91.3914 21.516V33H88.0434ZM116.774 33.432C114.902 33.432 113.234 32.988 111.77 32.1C110.306 31.212 109.154 30 108.314 28.464C107.474 26.904 107.054 25.164 107.054 23.244C107.054 21.3 107.462 19.572 108.278 18.06C109.118 16.548 110.246 15.36 111.662 14.496C113.102 13.608 114.71 13.164 116.486 13.164C117.926 13.164 119.198 13.428 120.302 13.956C121.43 14.46 122.378 15.156 123.146 16.044C123.938 16.908 124.538 17.904 124.946 19.032C125.378 20.136 125.594 21.288 125.594 22.488C125.594 22.752 125.57 23.052 125.522 23.388C125.498 23.7 125.462 24 125.414 24.288H109.502V21.408H123.47L121.886 22.704C122.102 21.456 121.982 20.34 121.526 19.356C121.07 18.372 120.398 17.592 119.51 17.016C118.622 16.44 117.614 16.152 116.486 16.152C115.358 16.152 114.326 16.44 113.39 17.016C112.454 17.592 111.722 18.42 111.194 19.5C110.69 20.556 110.486 21.816 110.582 23.28C110.486 24.696 110.702 25.944 111.23 27.024C111.782 28.08 112.55 28.908 113.534 29.508C114.542 30.084 115.634 30.372 116.81 30.372C118.106 30.372 119.198 30.072 120.086 29.472C120.974 28.872 121.694 28.104 122.246 27.168L125.054 28.608C124.67 29.496 124.07 30.312 123.254 31.056C122.462 31.776 121.514 32.352 120.41 32.784C119.33 33.216 118.118 33.432 116.774 33.432ZM135.827 33.432C133.883 33.432 132.191 32.952 130.751 31.992C129.311 31.032 128.291 29.736 127.691 28.104L130.355 26.808C130.907 27.96 131.663 28.872 132.623 29.544C133.583 30.216 134.651 30.552 135.827 30.552C136.883 30.552 137.759 30.3 138.455 29.796C139.151 29.292 139.499 28.632 139.499 27.816C139.499 27.24 139.331 26.784 138.995 26.448C138.683 26.088 138.299 25.812 137.843 25.62C137.387 25.404 136.967 25.248 136.583 25.152L133.667 24.324C131.915 23.82 130.631 23.1 129.815 22.164C129.023 21.228 128.627 20.136 128.627 18.888C128.627 17.736 128.915 16.74 129.491 15.9C130.091 15.036 130.895 14.364 131.903 13.884C132.935 13.404 134.087 13.164 135.359 13.164C137.063 13.164 138.587 13.596 139.931 14.46C141.299 15.324 142.271 16.536 142.847 18.096L140.111 19.356C139.679 18.348 139.031 17.556 138.167 16.98C137.303 16.38 136.331 16.08 135.251 16.08C134.267 16.08 133.487 16.332 132.911 16.836C132.335 17.316 132.047 17.928 132.047 18.672C132.047 19.224 132.191 19.68 132.479 20.04C132.767 20.376 133.115 20.64 133.523 20.832C133.931 21 134.327 21.144 134.711 21.264L137.879 22.2C139.463 22.656 140.687 23.364 141.551 24.324C142.439 25.284 142.883 26.436 142.883 27.78C142.883 28.86 142.583 29.832 141.983 30.696C141.383 31.56 140.555 32.232 139.499 32.712C138.443 33.192 137.219 33.432 135.827 33.432ZM154.07 33.216C152.174 33.216 150.71 32.676 149.678 31.596C148.67 30.516 148.166 28.992 148.166 27.024V16.8H144.638V13.596H145.358C146.222 13.596 146.906 13.332 147.41 12.804C147.914 12.276 148.166 11.58 148.166 10.716V9.132H151.514V13.596H155.87V16.8H151.514V26.916C151.514 27.564 151.61 28.128 151.802 28.608C152.018 29.088 152.366 29.472 152.846 29.76C153.326 30.024 153.962 30.156 154.754 30.156C154.922 30.156 155.126 30.144 155.366 30.12C155.63 30.096 155.87 30.072 156.086 30.048V33C155.774 33.072 155.426 33.12 155.042 33.144C154.658 33.192 154.334 33.216 154.07 33.216Z" fill="white"/>
</svg>
