<svg width="112" height="25" viewBox="0 0 112 25" fill="none" xmlns="http://www.w3.org/2000/svg">
<g clip-path="url(#clip0_309_2643)">
<path fill-rule="evenodd" clip-rule="evenodd" d="M35.5493 1.66386C35.5493 0.81667 36.2349 0.129883 37.0807 0.129883H39.7486C40.3506 0.129883 40.934 0.338846 41.3994 0.7212L42.211 1.38783L42.2313 1.40638C42.25 1.40005 42.2688 1.39386 42.2876 1.38783C43.7517 0.918085 45.5282 0.828749 47.3413 0.828749C49.1545 0.828749 50.9309 0.918085 52.3951 1.38783C52.4139 1.39386 52.4326 1.40005 52.4514 1.40638L52.4717 1.38783L53.2832 0.7212C53.7487 0.338846 54.3321 0.129883 54.9341 0.129883H57.602C58.4478 0.129883 59.1334 0.81667 59.1334 1.66386V2.61214C59.1334 3.34583 58.8249 4.04558 58.2834 4.53972L57.6287 5.13728C57.3091 5.429 56.9255 5.6413 56.5088 5.75705L56.3539 5.80007C56.9606 7.25003 57.2957 8.79991 57.2957 10.0537C57.2957 15.0972 54.1803 17.2755 51.4352 19.1947C49.2734 20.7062 47.3413 22.057 47.3413 24.5202C47.3413 22.057 45.4093 20.7062 43.2475 19.1947C40.5024 17.2755 37.387 15.0972 37.387 10.0537C37.387 8.79991 37.7221 7.25003 38.3288 5.80007L38.1739 5.75705C37.7572 5.6413 37.3736 5.429 37.054 5.13728L36.3992 4.53972C35.8578 4.04558 35.5493 3.34583 35.5493 2.61214V1.66386ZM49.3322 14.177C49.3322 14.418 49.2273 14.649 49.0407 14.8194C48.854 14.9898 48.6008 15.0855 48.3368 15.0855C48.1088 15.0855 47.8889 15.0141 47.713 14.885C48.0125 15.688 48.779 16.4489 49.9448 15.2253C50.974 14.0883 49.899 11.6902 48.8518 10.2671C48.5027 9.79277 47.9296 9.56448 47.3413 9.56448C46.753 9.56448 46.18 9.79277 45.8309 10.2671C44.7837 11.6902 43.7087 14.0883 44.7379 15.2253C45.9037 16.4489 46.6702 15.688 46.9697 14.885C46.7938 15.0141 46.5738 15.0855 46.3459 15.0855C46.0819 15.0855 45.8287 14.9898 45.642 14.8194C45.4554 14.649 45.3505 14.418 45.3505 14.177H49.3322ZM43.5293 7.07814H40.7562L42.9417 8.831C43.4226 9.21667 44.1256 9.09338 44.4231 8.57113C44.7989 7.91174 44.2998 7.07814 43.5293 7.07814ZM51.1534 7.07814H53.9265L51.741 8.831C51.2601 9.21667 50.5571 9.09338 50.2595 8.57113C49.8838 7.91174 50.3829 7.07814 51.1534 7.07814Z" fill="white"/>
<path d="M62.437 17.4063H64.8938V8.02215H62.437V17.4063ZM62.437 6.55874H64.8938V4.32703H62.437V6.55874Z" fill="white"/>
<path d="M66.4768 20.4795H68.9336V16.3453H68.9697C69.4936 17.1502 70.3426 17.6807 71.6433 17.6807C74.0278 17.6807 75.6536 15.76 75.6536 12.7234C75.6536 9.79654 74.082 7.76605 71.6252 7.76605C70.3607 7.76605 69.4936 8.36971 68.8974 9.19288H68.8433V8.02215H66.4768V20.4795ZM71.1194 15.6136C69.6562 15.6136 68.8794 14.4978 68.8794 12.7965C68.8794 11.1136 69.4936 9.77825 71.0291 9.77825C72.5465 9.77825 73.1607 11.0221 73.1607 12.7965C73.1607 14.5709 72.3658 15.6136 71.1194 15.6136Z" fill="white"/>
<path d="M80.5545 17.6807C82.8667 17.6807 84.4564 16.5465 84.4564 14.6624C84.4564 12.4673 82.7403 12.0282 81.1867 11.699C79.868 11.4246 78.6396 11.3514 78.6396 10.5465C78.6396 9.86971 79.2719 9.50386 80.2293 9.50386C81.2771 9.50386 81.9093 9.86971 82.0177 10.8758H84.2396C84.059 8.99166 82.7042 7.76605 80.2654 7.76605C78.1519 7.76605 76.49 8.73556 76.49 10.7661C76.49 12.8148 78.1158 13.2721 79.7777 13.6014C81.0422 13.8575 82.2164 13.949 82.2164 14.8453C82.2164 15.5039 81.6022 15.9246 80.5183 15.9246C79.4164 15.9246 78.6577 15.449 78.4951 14.3697H76.219C76.3635 16.3636 77.8629 17.6807 80.5545 17.6807Z" fill="white"/>
<path d="M93.7843 17.4063V8.02216H91.3276V13.4368C91.3276 14.6807 90.6231 15.5587 89.4669 15.5587C88.4192 15.5587 87.9314 14.9551 87.9314 13.8575V8.02216H85.4927V14.2783C85.4927 16.327 86.6489 17.6624 88.7082 17.6624C90.0089 17.6624 90.7314 17.1685 91.3637 16.3087H91.4179V17.4063H93.7843Z" fill="white"/>
<path d="M95.3734 17.4063H97.8302V11.9551C97.8302 10.7112 98.4986 9.9063 99.4921 9.9063C100.395 9.9063 100.919 10.4551 100.919 11.5161V17.4063H103.376V11.9551C103.376 10.7112 104.008 9.9063 105.038 9.9063C105.941 9.9063 106.465 10.4551 106.465 11.5161V17.4063H108.922V11.0953C108.922 9.04654 107.82 7.76605 105.869 7.76605C104.695 7.76605 103.719 8.388 103.087 9.41239H103.051C102.599 8.42459 101.66 7.76605 100.486 7.76605C99.2031 7.76605 98.2999 8.42459 97.7941 9.28434H97.7399V8.02215H95.3734V17.4063Z" fill="white"/>
<path d="M0.411926 17.4063H2.8687V4.32703H0.411926V17.4063Z" fill="white"/>
<path d="M8.87587 17.6807C11.7481 17.6807 13.7172 15.5222 13.7172 12.7234C13.7172 9.92459 11.7481 7.76605 8.87587 7.76605C6.00358 7.76605 4.03455 9.92459 4.03455 12.7234C4.03455 15.5222 6.00358 17.6807 8.87587 17.6807ZM8.87587 15.7782C7.35845 15.7782 6.52748 14.5526 6.52748 12.7234C6.52748 10.8941 7.35845 9.6502 8.87587 9.6502C10.3752 9.6502 11.2243 10.8941 11.2243 12.7234C11.2243 14.5526 10.3752 15.7782 8.87587 15.7782Z" fill="white"/>
<path d="M18.9417 20.6075C20.3146 20.6075 21.5069 20.2782 22.2837 19.5465C22.9701 18.9063 23.3856 18.01 23.3856 16.6929V8.02215H21.0191V9.00995H20.983C20.423 8.22337 19.574 7.76605 18.4179 7.76605C16.0695 7.76605 14.4075 9.55873 14.4075 12.3575C14.4075 15.1929 16.4308 16.8392 18.4901 16.8392C19.6643 16.8392 20.3688 16.3636 20.9108 15.7417H20.965V16.7661C20.965 18.0465 20.2966 18.7234 18.9056 18.7234C17.7675 18.7234 17.2437 18.2661 17.045 17.6807H14.6062C14.8591 19.51 16.4127 20.6075 18.9417 20.6075ZM18.9056 14.8453C17.6411 14.8453 16.8101 13.9124 16.8101 12.3209C16.8101 10.7478 17.6411 9.75995 18.8875 9.75995C20.3688 9.75995 21.0914 10.9307 21.0914 12.3026C21.0914 13.6929 20.4591 14.8453 18.9056 14.8453Z" fill="white"/>
<path d="M29.3572 17.6807C32.2294 17.6807 34.1984 15.5222 34.1984 12.7234C34.1984 9.92459 32.2294 7.76605 29.3572 7.76605C26.4849 7.76605 24.5159 9.92459 24.5159 12.7234C24.5159 15.5222 26.4849 17.6807 29.3572 17.6807ZM29.3572 15.7782C27.8397 15.7782 27.0088 14.5526 27.0088 12.7234C27.0088 10.8941 27.8397 9.6502 29.3572 9.6502C30.8565 9.6502 31.7055 10.8941 31.7055 12.7234C31.7055 14.5526 30.8565 15.7782 29.3572 15.7782Z" fill="white"/>
<path d="M108.811 5.97338C108.811 5.55243 109.148 5.21118 109.564 5.21118H111.069C111.485 5.21118 111.822 5.55243 111.822 5.97338C111.822 6.3943 111.485 6.73558 111.069 6.73558H109.564C109.148 6.73558 108.811 6.3943 108.811 5.97338Z" fill="white"/>
</g>
<defs>
<clipPath id="clip0_309_2643">
<rect width="112" height="25" fill="white"/>
</clipPath>
</defs>
</svg>
