<svg width="93" height="23" viewBox="0 0 93 23" fill="none" xmlns="http://www.w3.org/2000/svg">
<g clip-path="url(#clip0_309_2669)">
<path fill-rule="evenodd" clip-rule="evenodd" d="M5.5111 1.875V22.5H0V1.875H5.5111Z" fill="white"/>
<path fill-rule="evenodd" clip-rule="evenodd" d="M8.2666 1.875H19.9777C23.7824 1.875 26.8666 4.95304 26.8666 8.75C26.8666 12.547 23.7824 15.625 19.9777 15.625H13.7777V22.5H8.2666V1.875ZM13.7777 10.125H19.9777C20.7387 10.125 21.3555 9.50939 21.3555 8.75C21.3555 7.99062 20.7387 7.375 19.9777 7.375H13.7777V10.125Z" fill="white"/>
<path fill-rule="evenodd" clip-rule="evenodd" d="M47.5333 1.875V12.5312C47.5333 14.9993 49.538 17 52.0111 17C54.4841 17 56.4889 14.9993 56.4889 12.5312V1.875H62.0002V12.5312C62.0002 18.0369 57.5279 22.5 52.0111 22.5C46.4944 22.5 42.0222 18.0369 42.0222 12.5312V1.875H47.5333Z" fill="white"/>
<path fill-rule="evenodd" clip-rule="evenodd" d="M28.9333 11.5C28.9333 6.18425 33.2513 1.875 38.5778 1.875H39.9555V7.375H38.5778C36.295 7.375 34.4444 9.22185 34.4444 11.5V12.1875C34.4444 17.8829 29.8181 22.5 24.1111 22.5H23.4222V17H24.1111C26.7744 17 28.9333 14.8454 28.9333 12.1875V11.5Z" fill="white"/>
<path d="M93 2.5625C93 3.70159 92.0749 4.625 90.9331 4.625C89.7917 4.625 88.8667 3.70159 88.8667 2.5625C88.8667 1.42341 89.7917 0.5 90.9331 0.5C92.0749 0.5 93 1.42341 93 2.5625Z" fill="white"/>
<path d="M67.9176 22.5L70.5474 11.5099L72.5026 18.1216C73.6681 22.065 79.2652 22.065 80.4313 18.1216L82.3859 11.5099L85.0158 22.5H90.6816L86.5467 5.2187C85.5633 1.10908 79.7605 0.956915 78.5619 5.00939L76.4669 12.0958L74.3714 5.00939C73.1734 0.956939 67.37 1.10906 66.3866 5.2187L62.2517 22.5H67.9176Z" fill="white"/>
</g>
<defs>
<clipPath id="clip0_309_2669">
<rect width="93" height="22" fill="white" transform="translate(0 0.5)"/>
</clipPath>
</defs>
</svg>
