<svg width="103" height="25" viewBox="0 0 103 25" fill="none" xmlns="http://www.w3.org/2000/svg">
<g clip-path="url(#clip0_309_2655)">
<path d="M31.0681 17.88H38.3096V15.6849H33.6419V7.41656H31.0681V17.88Z" fill="white"/>
<path d="M42.5999 16.4166C41.5675 16.4166 41.0295 15.5093 41.0295 14.1483C41.0295 12.7873 41.5675 11.8654 42.5999 11.8654C43.6324 11.8654 44.1849 12.7873 44.1849 14.1483C44.1849 15.5093 43.6324 16.4166 42.5999 16.4166ZM42.6145 18.1141C45.0138 18.1141 46.5842 16.4019 46.5842 14.1483C46.5842 11.8946 45.0138 10.1824 42.6145 10.1824C40.2297 10.1824 38.6302 11.8946 38.6302 14.1483C38.6302 16.4019 40.2297 18.1141 42.6145 18.1141Z" fill="white"/>
<path d="M50.7372 20.4702C51.8423 20.4702 52.8166 20.2214 53.4709 19.6361C54.0671 19.0946 54.4597 18.2751 54.4597 17.1483V10.3873H52.1913V11.1922H52.1622C51.726 10.5629 51.0571 10.1678 50.0683 10.1678C48.2216 10.1678 46.942 11.719 46.942 13.9141C46.942 16.2117 48.4979 17.4702 50.1701 17.4702C51.0717 17.4702 51.6388 17.1044 52.075 16.6068H52.1332V17.3532C52.1332 18.2605 51.7115 18.7873 50.7081 18.7873C49.9229 18.7873 49.5303 18.4507 49.3994 18.0556H47.1019C47.3346 19.6214 48.6869 20.4702 50.7372 20.4702ZM50.7227 15.6995C49.8357 15.6995 49.254 14.9678 49.254 13.841C49.254 12.6995 49.8357 11.9678 50.7227 11.9678C51.7115 11.9678 52.2349 12.8166 52.2349 13.8263C52.2349 14.88 51.7551 15.6995 50.7227 15.6995Z" fill="white"/>
<path d="M59.124 16.4166C58.0916 16.4166 57.5536 15.5093 57.5536 14.1483C57.5536 12.7873 58.0916 11.8654 59.124 11.8654C60.1565 11.8654 60.7088 12.7873 60.7088 14.1483C60.7088 15.5093 60.1565 16.4166 59.124 16.4166ZM59.1386 18.1141C61.5376 18.1141 63.1081 16.4019 63.1081 14.1483C63.1081 11.8946 61.5376 10.1824 59.1386 10.1824C56.7538 10.1824 55.1543 11.8946 55.1543 14.1483C55.1543 16.4019 56.7538 18.1141 59.1386 18.1141Z" fill="white"/>
<path d="M63.8005 17.88H66.1707V10.3873H63.8005V17.88ZM63.8005 9.34827H66.1707V7.41656H63.8005V9.34827Z" fill="white"/>
<path d="M67.199 20.3532H69.5692V17.1044H69.5983C70.0636 17.7336 70.7471 18.1141 71.7068 18.1141C73.6553 18.1141 74.9495 16.5629 74.9495 14.1336C74.9495 11.88 73.7426 10.1678 71.765 10.1678C70.7471 10.1678 70.02 10.6214 69.5111 11.2946H69.4675V10.3873H67.199V20.3532ZM71.0961 16.2702C70.0782 16.2702 69.4965 15.4361 69.4965 14.2214C69.4965 13.0068 70.02 12.0849 71.0524 12.0849C72.0703 12.0849 72.5502 12.9336 72.5502 14.2214C72.5502 15.4946 71.9976 16.2702 71.0961 16.2702Z" fill="white"/>
<path d="M78.8083 18.1141C80.7568 18.1141 82.1964 17.2653 82.1964 15.6263C82.1964 13.7092 80.655 13.3727 79.3463 13.1532C78.4012 12.9775 77.5578 12.9044 77.5578 12.3775C77.5578 11.9092 78.0086 11.6897 78.5902 11.6897C79.2446 11.6897 79.6953 11.8946 79.7826 12.5678H81.9637C81.8474 11.0897 80.7132 10.1678 78.6047 10.1678C76.8453 10.1678 75.3911 10.9873 75.3911 12.5678C75.3911 14.3239 76.7726 14.6751 78.0667 14.8946C79.0555 15.0702 79.9571 15.1434 79.9571 15.8166C79.9571 16.2995 79.5063 16.5629 78.7938 16.5629C78.0086 16.5629 77.5141 16.1971 77.4269 15.4507H75.1876C75.2603 17.1044 76.6271 18.1141 78.8083 18.1141Z" fill="white"/>
<path d="M85.4161 18.0995C86.4485 18.0995 87.1028 17.6898 87.6409 16.9581H87.6845V17.88H89.9529V10.3873H87.5827V14.5727C87.5827 15.4654 87.0883 16.08 86.274 16.08C85.5178 16.08 85.1543 15.6264 85.1543 14.8068V10.3873H82.7986V15.3044C82.7986 16.9727 83.7002 18.0995 85.4161 18.0995Z" fill="white"/>
<path d="M90.9841 17.88H93.3543V13.68C93.3543 12.7873 93.7906 12.158 94.5322 12.158C95.2447 12.158 95.5791 12.6263 95.5791 13.4312V17.88H97.9494V13.68C97.9494 12.7873 98.3711 12.158 99.1272 12.158C99.8397 12.158 100.174 12.6263 100.174 13.4312V17.88H102.544V13.0068C102.544 11.3239 101.701 10.1678 100.014 10.1678C99.0545 10.1678 98.2547 10.5775 97.6731 11.4849H97.644C97.2659 10.68 96.5243 10.1678 95.5501 10.1678C94.474 10.1678 93.7615 10.68 93.2962 11.4556H93.2526V10.3873H90.9841V17.88Z" fill="white"/>
<path fill-rule="evenodd" clip-rule="evenodd" d="M12.1791 24.5873C18.8715 24.5873 24.2967 19.1274 24.2967 12.3922C24.2967 5.65702 18.8715 0.197083 12.1791 0.197083C5.48671 0.197083 0.0614624 5.65702 0.0614624 12.3922C0.0614624 19.1274 5.48671 24.5873 12.1791 24.5873ZM14.0494 9.61937C15.0824 8.5798 15.0824 6.89437 14.0494 5.8548C13.0165 4.81524 11.3418 4.81524 10.3088 5.8548C9.27588 6.89437 9.27588 8.5798 10.3088 9.61937L12.1791 11.5016L14.0494 9.61937ZM14.9343 14.2745C15.9673 15.3141 17.642 15.3141 18.675 14.2745C19.7079 13.2349 19.7079 11.5495 18.675 10.5099C17.642 9.47041 15.9673 9.47041 14.9343 10.5099L13.064 12.3922L14.9343 14.2745ZM14.0494 18.9296C15.0824 17.89 15.0824 16.2046 14.0494 15.165L12.1791 13.2828L10.3088 15.165C9.27588 16.2046 9.27588 17.89 10.3088 18.9296C11.3418 19.9692 13.0165 19.9692 14.0494 18.9296ZM5.68322 14.2745C4.65029 13.2349 4.65029 11.5495 5.68322 10.5099C6.71621 9.47041 8.39093 9.47041 9.4239 10.5099L11.2942 12.3922L9.4239 14.2745C8.39093 15.3141 6.71621 15.3141 5.68322 14.2745Z" fill="white"/>
</g>
<defs>
<clipPath id="clip0_309_2655">
<rect width="103" height="25" fill="white"/>
</clipPath>
</defs>
</svg>
