<svg width="490" height="412" viewBox="0 0 490 412" fill="none" xmlns="http://www.w3.org/2000/svg">
<path opacity="0.5" d="M99.6494 0V80.3719C99.6494 86.4421 104.572 91.3629 110.645 91.3629H188.303C194.376 91.3629 199.299 96.2838 199.299 102.354V179.978C199.299 186.048 204.222 190.969 210.295 190.969H287.952C294.025 190.969 298.948 195.89 298.948 201.96V279.584C298.948 285.654 303.871 290.575 309.944 290.575H387.602C393.674 290.575 398.597 295.496 398.597 301.566V379.19C398.597 385.261 403.52 390.181 409.593 390.181H490M0 0V80.3719C0 86.4421 4.92298 91.3629 10.9958 91.3629H88.6536C94.7264 91.3629 99.6494 96.2838 99.6494 102.354V179.978C99.6494 186.048 104.572 190.969 110.645 190.969H188.303C194.376 190.969 199.299 195.89 199.299 201.96V279.584C199.299 285.654 194.376 290.575 188.303 290.575H110.645C104.572 290.575 99.6494 285.654 99.6494 279.584V200.586L99.5532 199.937C98.8153 194.959 94.5879 191.242 89.5541 191.145L80.4067 190.969H10.9958C4.92298 190.969 0 195.89 0 201.96V279.584C0 285.654 4.92298 290.575 10.9958 290.575H89.3408L91.9511 290.749C96.2831 291.038 99.6494 294.634 99.6494 298.974V307.405M99.6494 298.819V379.19C99.6494 385.261 104.572 390.181 110.645 390.181H188.303C194.376 390.181 199.299 395.102 199.299 401.172V478.797C199.299 484.867 204.222 489.788 210.295 489.788H287.952C294.025 489.788 298.948 494.708 298.948 500.779V578.403C298.948 584.473 303.871 589.394 309.944 589.394H387.602C393.674 589.394 398.597 594.315 398.597 600.385V678.009C398.597 684.079 403.52 689 409.593 689H490" stroke="#EAF3FC" stroke-width="0.431035"/>
</svg>
