<svg width="488" height="717" viewBox="0 0 488 717" fill="none" xmlns="http://www.w3.org/2000/svg">
<path opacity="0.3" d="M383.487 0V83.5214C383.487 89.8295 378.373 94.9432 372.065 94.9432H291.396C285.087 94.9432 279.973 100.057 279.973 106.365V187.031C279.973 193.339 274.859 198.453 268.551 198.453H187.882C181.574 198.453 176.46 203.566 176.46 209.874V290.54C176.46 296.848 171.346 301.962 165.038 301.962H84.3689C78.0606 301.962 72.9467 307.076 72.9467 313.384V394.05C72.9467 400.358 67.8328 405.472 61.5245 405.472H-22M487 0V83.5214C487 89.8295 481.886 94.9432 475.578 94.9432H394.909C388.601 94.9432 383.487 100.057 383.487 106.365V187.031C383.487 193.339 378.373 198.453 372.065 198.453H291.396C285.087 198.453 279.973 203.566 279.973 209.874V290.54C279.973 296.848 285.087 301.962 291.396 301.962H372.065C378.373 301.962 383.487 296.848 383.487 290.54V208.447L383.587 207.772C384.353 202.599 388.744 198.736 393.973 198.635L403.475 198.453H475.578C481.886 198.453 487 203.566 487 209.874V290.54C487 296.848 481.886 301.962 475.578 301.962H394.195L391.483 302.143C386.983 302.443 383.487 306.18 383.487 310.69V319.452M383.487 310.528V394.05C383.487 400.358 378.373 405.472 372.065 405.472H291.396C285.087 405.472 279.973 410.585 279.973 416.893V497.559C279.973 503.867 274.859 508.981 268.551 508.981H187.882C181.574 508.981 176.46 514.095 176.46 520.403V601.069C176.46 607.377 171.346 612.491 165.038 612.491H84.3689C78.0606 612.491 72.9467 617.604 72.9467 623.912V704.578C72.9467 710.886 67.8328 716 61.5245 716H-22" stroke="#EAF3FC" stroke-width="0.431035"/>
</svg>
