<svg width="490" height="412" viewBox="0 0 490 412" fill="none" xmlns="http://www.w3.org/2000/svg">
<path opacity="0.5" d="M390.351 0V80.3719C390.351 86.4421 385.428 91.3629 379.355 91.3629H301.697C295.624 91.3629 290.701 96.2838 290.701 102.354V179.978C290.701 186.048 285.778 190.969 279.705 190.969H202.048C195.975 190.969 191.052 195.89 191.052 201.96V279.584C191.052 285.654 186.129 290.575 180.056 290.575H102.398C96.3255 290.575 91.4025 295.496 91.4025 301.566V379.19C91.4025 385.261 86.4795 390.181 80.4067 390.181H1.66893e-06M490 0V80.3719C490 86.4421 485.077 91.3629 479.004 91.3629H401.346C395.274 91.3629 390.351 96.2838 390.351 102.354V179.978C390.351 186.048 385.428 190.969 379.355 190.969H301.697C295.624 190.969 290.701 195.89 290.701 201.96V279.584C290.701 285.654 295.624 290.575 301.697 290.575H379.355C385.428 290.575 390.351 285.654 390.351 279.584V200.586L390.447 199.937C391.185 194.959 395.412 191.242 400.446 191.145L409.593 190.969H479.004C485.077 190.969 490 195.89 490 201.96V279.584C490 285.654 485.077 290.575 479.004 290.575H400.659L398.049 290.749C393.717 291.038 390.351 294.634 390.351 298.974V307.405M390.351 298.819V379.19C390.351 385.261 385.428 390.181 379.355 390.181H301.697C295.624 390.181 290.701 395.102 290.701 401.172V478.797C290.701 484.867 285.778 489.788 279.705 489.788H202.048C195.975 489.788 191.052 494.708 191.052 500.779V578.403C191.052 584.473 186.129 589.394 180.056 589.394H102.398C96.3255 589.394 91.4025 594.315 91.4025 600.385V678.009C91.4025 684.079 86.4795 689 80.4067 689H1.66893e-06" stroke="#EAF3FC" stroke-width="0.431035"/>
</svg>
