<svg width="609" height="466" viewBox="0 0 609 466" fill="none" xmlns="http://www.w3.org/2000/svg">
<path opacity="0.1" d="M609 362.487L525.479 362.487C519.171 362.487 514.057 357.373 514.057 351.065L514.057 270.396C514.057 264.087 508.943 258.973 502.635 258.973L421.969 258.973C415.661 258.973 410.547 253.859 410.547 247.551L410.547 166.882C410.547 160.574 405.434 155.46 399.126 155.46L318.46 155.46C312.152 155.46 307.038 150.346 307.038 144.038L307.038 63.3689C307.038 57.0606 301.924 51.9467 295.616 51.9467L214.95 51.9467C208.642 51.9467 203.528 46.8328 203.528 40.5245L203.528 -43M609 466L525.479 466C519.171 466 514.057 460.886 514.057 454.578L514.057 373.909C514.057 367.601 508.943 362.487 502.635 362.487L421.969 362.487C415.661 362.487 410.547 357.373 410.547 351.065L410.547 270.395C410.547 264.087 405.434 258.973 399.126 258.973L318.46 258.973C312.152 258.973 307.038 264.087 307.038 270.395L307.038 351.065C307.038 357.373 312.152 362.487 318.46 362.487L400.553 362.487L401.228 362.587C406.401 363.353 410.264 367.744 410.365 372.973L410.547 382.475L410.547 454.578C410.547 460.886 405.434 466 399.126 466L318.46 466C312.152 466 307.038 460.886 307.038 454.578L307.038 373.195L306.857 370.483C306.557 365.983 302.82 362.487 298.31 362.487L289.548 362.487M298.472 362.487L214.95 362.487C208.642 362.487 203.528 357.373 203.528 351.064L203.528 270.395C203.528 264.087 198.415 258.973 192.107 258.973L111.441 258.973C105.133 258.973 100.019 253.859 100.019 247.551L100.019 166.882C100.019 160.574 94.9053 155.46 88.5972 155.46L7.93123 155.46C1.62318 155.46 -3.49053 150.346 -3.49053 144.038L-3.49052 63.3688C-3.49052 57.0606 -8.60423 51.9467 -14.9123 51.9467L-95.5782 51.9467C-101.886 51.9467 -107 46.8328 -107 40.5245L-107 -43" stroke="#677489"/>
</svg>
