<svg width="488" height="717" viewBox="0 0 488 717" fill="none" xmlns="http://www.w3.org/2000/svg">
<path opacity="0.3" d="M104.513 0V83.5214C104.513 89.8295 109.627 94.9432 115.935 94.9432H196.604C202.913 94.9432 208.027 100.057 208.027 106.365V187.031C208.027 193.339 213.141 198.453 219.449 198.453H300.118C306.426 198.453 311.54 203.566 311.54 209.874V290.54C311.54 296.848 316.654 301.962 322.962 301.962H403.631C409.939 301.962 415.053 307.076 415.053 313.384V394.05C415.053 400.358 420.167 405.472 426.475 405.472H510M1 0V83.5214C1 89.8295 6.11387 94.9432 12.4222 94.9432H93.0912C99.3995 94.9432 104.513 100.057 104.513 106.365V187.031C104.513 193.339 109.627 198.453 115.935 198.453H196.604C202.913 198.453 208.027 203.566 208.027 209.874V290.54C208.027 296.848 202.913 301.962 196.604 301.962H115.935C109.627 301.962 104.513 296.848 104.513 290.54V208.447L104.413 207.772C103.647 202.599 99.2556 198.736 94.0266 198.635L84.5245 198.453H12.4222C6.11388 198.453 1 203.566 1 209.874V290.54C1 296.848 6.11388 301.962 12.4222 301.962H93.8051L96.5166 302.143C101.017 302.443 104.513 306.18 104.513 310.69V319.452M104.513 310.528V394.05C104.513 400.358 109.627 405.472 115.935 405.472H196.604C202.913 405.472 208.027 410.585 208.027 416.893V497.559C208.027 503.867 213.141 508.981 219.449 508.981H300.118C306.426 508.981 311.54 514.095 311.54 520.403V601.069C311.54 607.377 316.654 612.491 322.962 612.491H403.631C409.939 612.491 415.053 617.604 415.053 623.912V704.578C415.053 710.886 420.167 716 426.475 716H510" stroke="#EAF3FC" stroke-width="0.431035"/>
</svg>
