<svg width="320" height="405" viewBox="0 0 320 405" fill="none" xmlns="http://www.w3.org/2000/svg">
<path opacity="0.3" d="M254.923 0V58.2084C254.923 62.6046 251.708 66.1685 247.742 66.1685H197.027C193.061 66.1685 189.846 69.7324 189.846 74.1286V130.347C189.846 134.743 186.631 138.307 182.665 138.307H131.95C127.984 138.307 124.769 141.871 124.769 146.267V202.486C124.769 206.882 121.554 210.446 117.588 210.446H66.8724C62.9065 210.446 59.6914 214.01 59.6914 218.406V274.624C59.6914 279.02 56.4764 282.584 52.5105 282.584H-8.01682e-06M320 0V58.2084C320 62.6046 316.785 66.1685 312.819 66.1685H262.104C258.138 66.1685 254.923 69.7324 254.923 74.1286V130.347C254.923 134.743 251.708 138.307 247.742 138.307H197.027C193.061 138.307 189.846 141.871 189.846 146.267V202.486C189.846 206.882 193.061 210.446 197.027 210.446H247.742C251.708 210.446 254.923 206.882 254.923 202.486V145.272L254.986 144.802C255.468 141.197 258.228 138.505 261.516 138.434L267.489 138.307H312.819C316.785 138.307 320 141.871 320 146.267V202.486C320 206.882 316.785 210.446 312.819 210.446H261.655L259.95 210.572C257.121 210.781 254.923 213.385 254.923 216.529V222.635M254.923 216.416V274.624C254.923 279.02 251.708 282.584 247.742 282.584H197.027C193.061 282.584 189.846 286.148 189.846 290.544V346.763C189.846 351.159 186.631 354.723 182.665 354.723H131.95C127.984 354.723 124.769 358.287 124.769 362.683V418.901C124.769 423.298 121.554 426.861 117.588 426.861H66.8724C62.9065 426.861 59.6914 430.425 59.6914 434.822V491.04C59.6914 495.436 56.4764 499 52.5105 499H-8.01682e-06" stroke="#EAF3FC" stroke-width="0.431035"/>
</svg>
