<svg width="320" height="405" viewBox="0 0 320 405" fill="none" xmlns="http://www.w3.org/2000/svg">
<path opacity="0.3" d="M65.0771 0V58.2084C65.0771 62.6046 68.2922 66.1685 72.2581 66.1685H122.973C126.939 66.1685 130.154 69.7324 130.154 74.1286V130.347C130.154 134.743 133.369 138.307 137.335 138.307H188.05C192.016 138.307 195.231 141.871 195.231 146.267V202.486C195.231 206.882 198.446 210.446 202.412 210.446H253.128C257.094 210.446 260.309 214.01 260.309 218.406V274.624C260.309 279.02 263.524 282.584 267.489 282.584H320M0 0V58.2084C0 62.6046 3.21501 66.1685 7.18093 66.1685H57.8962C61.8621 66.1685 65.0771 69.7324 65.0771 74.1286V130.347C65.0771 134.743 68.2921 138.307 72.2581 138.307H122.973C126.939 138.307 130.154 141.871 130.154 146.267V202.486C130.154 206.882 126.939 210.446 122.973 210.446H72.2581C68.2921 210.446 65.0771 206.882 65.0771 202.486V145.272L65.0143 144.802C64.5325 141.197 61.7717 138.505 58.4843 138.434L52.5105 138.307H7.18093C3.21501 138.307 0 141.871 0 146.267V202.486C0 206.882 3.21501 210.446 7.18093 210.446H58.345L60.0497 210.572C62.8788 210.781 65.0771 213.385 65.0771 216.529V222.635M65.0771 216.416V274.624C65.0771 279.02 68.2922 282.584 72.2581 282.584H122.973C126.939 282.584 130.154 286.148 130.154 290.544V346.763C130.154 351.159 133.369 354.723 137.335 354.723H188.05C192.016 354.723 195.231 358.287 195.231 362.683V418.901C195.231 423.298 198.446 426.861 202.412 426.861H253.128C257.094 426.861 260.309 430.425 260.309 434.822V491.04C260.309 495.436 263.524 499 267.489 499H320" stroke="#EAF3FC" stroke-width="0.431035"/>
</svg>
